<svg width="306" height="111" viewBox="0 0 306 111" fill="none" xmlns="http://www.w3.org/2000/svg">
<path fill-rule="evenodd" clip-rule="evenodd" d="M10.917 0.436523H18.5151C22.5292 0.436523 24.8516 2.73019 24.8516 5.81673C24.8516 7.88386 23.5327 9.58287 21.8697 10.1209C23.7047 10.5456 25.4824 12.2163 25.4824 14.8215C25.4824 18.1062 22.9593 20.5132 19.1172 20.5132H10.917V0.436523ZM15.2473 8.70335H17.7338C19.324 8.70335 20.3649 7.88258 20.3649 6.52407C20.3649 5.22216 19.4686 4.37309 17.676 4.37309H15.2473V8.70335ZM18.0169 16.9703H15.2473V12.2463H18.0169C19.7514 12.2463 20.7585 13.2139 20.7585 14.6083C20.7585 16.0596 19.7234 16.9703 18.0169 16.9703ZM37.0887 20.5914C37.032 20.3334 36.9753 19.5306 36.9753 19.1578C36.238 20.3907 34.6217 20.9068 33.2038 20.9068C29.7727 20.9068 27.8444 18.3837 27.8444 15.3444V6.3414H32.1546V14.4269C32.1546 15.8032 32.8919 16.8927 34.4232 16.8927C35.8694 16.8927 36.7768 15.8892 36.7768 14.4556V6.3414H41.0871V18.0396C41.0871 19.3299 41.2005 20.3621 41.2288 20.5914H37.0887ZM53.826 11.8527H48.3147C48.3978 10.8123 49.284 9.49071 51.0565 9.49071C53.0505 9.49071 53.7706 10.7842 53.826 11.8527ZM54.2782 15.4001L57.8996 16.4219C57.2152 18.8631 54.9626 20.9068 51.3697 20.9068C47.4632 20.9068 43.9845 18.1251 43.9845 13.3847C43.9845 8.84305 47.3777 5.94774 51.0561 5.94774C55.4473 5.94774 58.1562 8.64435 58.1562 13.186C58.1562 13.7821 58.0992 14.435 58.0707 14.5201H48.2046C48.2902 16.1097 49.7444 17.2451 51.4268 17.2451C52.9951 17.2451 53.879 16.5071 54.2782 15.4001ZM65.2682 20.9068V12.7673C65.2682 11.3393 66.1854 10.2826 67.6184 10.2826C69.1947 10.2826 69.9399 11.3393 69.9399 12.7388V20.9068H74.2963V11.9962C74.2963 8.88321 72.6913 6.3414 69.1087 6.3414C67.647 6.3414 65.8988 6.99828 65.1249 8.34058V6.71268H60.9118V20.9068H65.2682ZM77.0519 16.6125C77.0519 14.1098 78.9118 12.6879 81.2582 12.3466L84.606 11.8347C85.3786 11.7209 85.6361 11.3512 85.6361 10.8677C85.6361 10.043 84.9208 9.33202 83.5473 9.33202C82.0307 9.33202 81.2009 10.3558 81.1151 11.4081L77.338 10.6402C77.5097 8.62104 79.3982 5.94774 83.5759 5.94774C88.1828 5.94774 89.871 8.50728 89.871 11.4081V18.3188C89.871 19.428 90.0141 20.3665 90.0427 20.5087H86.1226C86.0939 20.3949 85.9795 19.883 85.9795 18.9161C85.2355 20.1105 83.862 20.9068 81.9735 20.9068C78.8546 20.9068 77.0519 18.8592 77.0519 16.6125ZM85.7124 15.2525C85.7124 17.5071 84.3845 18.1513 83.0854 18.1513C81.8729 18.1513 81.3821 17.4193 81.3821 16.658C81.3821 15.6331 82.075 15.1939 82.9988 15.0475L85.7124 14.6083V15.2525ZM92.4046 16.4787L96.0141 15.8258C96.0701 16.7909 96.7416 17.7277 98.1966 17.7277C99.2879 17.7277 99.8195 17.1316 99.8195 16.5071C99.8195 15.9962 99.4838 15.5704 98.4485 15.3433L96.8536 14.9743C93.8876 14.3214 92.7124 12.6183 92.7124 10.6313C92.7124 8.04826 94.9509 5.94774 98.0567 5.94774C102.086 5.94774 103.485 8.50242 103.625 10.1488L100.099 10.8016C99.9874 9.86492 99.3998 9.07013 98.1127 9.07013C97.3013 9.07013 96.6017 9.55268 96.6017 10.2907C96.6017 10.8868 97.0774 11.2274 97.693 11.341L99.5397 11.71C102.422 12.3061 103.821 14.066 103.821 16.1381C103.821 18.5508 102.002 20.9068 98.2806 20.9068C93.9156 20.9068 92.5166 18.0399 92.4046 16.4787ZM109.415 15.3956C107.797 15.3956 106.576 16.5489 106.576 18.077C106.576 19.5185 107.57 20.6718 109.131 20.6718C109.472 20.6718 109.784 20.5853 109.926 20.47C109.869 22.1999 108.308 23.3531 107.087 23.5838V25.6308C109.359 25.3713 112.481 23.4684 112.481 18.9996C112.481 17.0967 111.403 15.3956 109.415 15.3956ZM121.929 16.4787L125.539 15.8258C125.595 16.7909 126.266 17.7277 127.721 17.7277C128.812 17.7277 129.344 17.1316 129.344 16.5071C129.344 15.9962 129.008 15.5704 127.973 15.3433L126.378 14.9743C123.412 14.3214 122.237 12.6183 122.237 10.6313C122.237 8.04826 124.475 5.94774 127.581 5.94774C131.61 5.94774 133.009 8.50242 133.149 10.1488L129.624 10.8016C129.512 9.86492 128.924 9.07013 127.637 9.07013C126.826 9.07013 126.126 9.55268 126.126 10.2907C126.126 10.8868 126.602 11.2274 127.217 11.341L129.064 11.71C131.946 12.3061 133.345 14.066 133.345 16.1381C133.345 18.5508 131.527 20.9068 127.805 20.9068C123.44 20.9068 122.041 18.0399 121.929 16.4787ZM145.549 13.413C145.549 15.8227 144.03 16.9702 142.399 16.9702C140.797 16.9702 139.25 15.7941 139.25 13.413C139.25 11.0032 140.797 9.88437 142.399 9.88437C144.03 9.88437 145.549 11.0032 145.549 13.413ZM142.399 5.94774C146.621 5.94774 149.879 9.04174 149.879 13.4131C149.879 17.7844 146.621 20.9068 142.399 20.9068C138.206 20.9068 134.92 17.7844 134.92 13.4131C134.92 9.04174 138.206 5.94774 142.399 5.94774ZM153.03 26.0244H157.625L166.413 6.3414H161.789L158.63 13.9514L155.155 6.3414H150.273L156.275 18.6433L153.03 26.0244Z" fill="white"/>
<path fill-rule="evenodd" clip-rule="evenodd" d="M266.429 35.5664H244.834C243.863 35.5664 242.892 36.3084 242.892 37.5453V55.1056C242.892 61.5373 242.892 75.2137 242.892 75.2137L221.055 37.2983C220.569 36.3084 219.355 35.5664 218.143 35.5664H196.304C195.333 35.5664 194.362 36.3093 194.362 37.5453V108.786C194.362 109.775 195.575 110.755 196.546 110.755H218.142C219.112 110.755 220.084 110.013 220.084 108.777V72.4709L241.921 109.024C242.646 110.079 243.62 110.755 244.834 110.755H266.429C267.399 110.755 268.37 110.013 268.37 108.777V37.5453C268.37 36.5554 267.642 35.5664 266.429 35.5664" fill="white"/>
<mask id="mask0_0_1" style="mask-type:alpha" maskUnits="userSpaceOnUse" x="278" y="36" width="28" height="75">
<path fill-rule="evenodd" clip-rule="evenodd" d="M278.292 36.1543H305.582V110.75H278.292V36.1543Z" fill="white"/>
</mask>
<g mask="url(#mask0_0_1)">
<path fill-rule="evenodd" clip-rule="evenodd" d="M291.961 39.6809C288.024 39.6492 283.348 38.7805 278.292 36.1543V108.784C278.292 109.767 279.037 110.75 280.277 110.75H284.117H303.598C303.728 110.75 303.857 110.736 303.985 110.712C304.094 110.692 304.195 110.66 304.294 110.625C304.307 110.62 304.321 110.617 304.334 110.612C304.44 110.572 304.538 110.523 304.632 110.467C304.646 110.458 304.662 110.45 304.677 110.441C304.753 110.393 304.824 110.34 304.891 110.282C304.931 110.248 304.969 110.216 305.007 110.179C305.043 110.142 305.076 110.104 305.109 110.065C305.168 109.998 305.222 109.928 305.271 109.853C305.28 109.838 305.288 109.822 305.297 109.808C305.353 109.715 305.403 109.619 305.444 109.513C305.448 109.501 305.451 109.487 305.457 109.474C305.492 109.376 305.524 109.275 305.543 109.167C305.569 109.041 305.583 108.913 305.583 108.784V37.9914V36.1543C300.547 38.7705 295.887 39.6429 291.961 39.6809" fill="white"/>
</g>
<path fill-rule="evenodd" clip-rule="evenodd" d="M305.768 25.6359C305.768 17.66 300.158 12.3408 291.596 12.3408C283.035 12.3408 277.425 17.3638 277.425 25.6359C277.425 35.1715 305.33 35.2342 305.768 25.6359" fill="white"/>
<path fill-rule="evenodd" clip-rule="evenodd" d="M146.73 87.7668C139.058 87.7668 132.839 81.2276 132.839 73.1607C132.839 65.0947 139.058 58.5555 146.73 58.5555C154.401 58.5555 160.62 65.0947 160.62 73.1607C160.62 81.2276 154.401 87.7668 146.73 87.7668M146.73 35.5664C124.119 35.5664 105.789 52.3984 105.789 73.1609C105.789 93.9243 124.119 110.755 146.73 110.755C169.34 110.755 187.67 93.9243 187.67 73.1609C187.67 52.3984 169.34 35.5664 146.73 35.5664" fill="white"/>
<mask id="mask1_0_1" style="mask-type:alpha" maskUnits="userSpaceOnUse" x="0" y="36" width="101" height="75">
<path fill-rule="evenodd" clip-rule="evenodd" d="M0.681641 36.0098H100.971V110.756H0.681641V36.0098Z" fill="white"/>
</mask>
<g mask="url(#mask1_0_1)">
<path fill-rule="evenodd" clip-rule="evenodd" d="M89.096 37.971C88.8551 36.9945 87.8891 36.017 86.6813 36.017H63.267C62.061 36.017 61.095 36.9945 60.8541 37.971C60.8541 37.971 53.4159 67.3237 51.3495 74.8499C51.0469 75.9478 50.8571 76.5874 50.8257 76.5874C50.5849 76.5874 40.7982 37.9638 40.7982 37.9638C40.5574 36.9872 39.5913 36.0098 38.3844 36.0098H14.9701C13.7633 36.0098 12.7972 36.9872 12.5555 37.9638L0.727475 108.795C0.48574 109.771 1.21095 110.748 2.41693 110.748H24.3844C25.5913 110.748 26.5564 109.771 26.5564 108.795L30.0661 71.0171L41.5225 108.795C42.0051 109.772 42.9711 110.749 44.178 110.749H47.9285V110.756H57.4743C58.6803 110.756 59.6464 109.779 60.1298 108.802L71.5854 71.0234L75.095 108.802C75.095 109.778 76.0602 110.755 77.268 110.755H99.2345C100.441 110.755 101.166 109.778 100.924 108.802L89.096 37.971Z" fill="white"/>
</g>
</svg>

